<svg xmlns="http://www.w3.org/2000/svg" xmlns:xlink="http://www.w3.org/1999/xlink" width="400" zoomAndPan="magnify" viewBox="0 0 300 299.999988" height="400" preserveAspectRatio="xMidYMid meet" version="1.0"><defs><clipPath id="94d03c1c67"><path d="M 18 98.3125 L 299.777344 98.3125 L 299.777344 208.5625 L 18 208.5625 Z M 18 98.3125 " clip-rule="nonzero"/></clipPath></defs><g clip-path="url(#94d03c1c67)"><path fill="#000000" d="M 297.347656 132.496094 L 165.441406 99.46875 C 161.011719 98.359375 156.402344 98.359375 152.066406 99.46875 L 20.070312 132.496094 C 17.761719 133.046875 17.761719 136.371094 20.070312 136.921875 L 84.914062 153.160156 C 121.625 142.273438 161.105469 141.722656 198.648438 148.363281 C 160.644531 144.121094 120.613281 147.441406 84.914062 161.1875 L 84.914062 179.730469 C 84.914062 181.296875 86.390625 182.3125 87.867188 181.851562 C 108.898438 175.394531 133.0625 171.613281 158.707031 171.613281 C 184.351562 171.613281 208.519531 175.394531 229.640625 181.851562 C 231.117188 182.3125 232.5 181.296875 232.5 179.730469 L 232.5 153.160156 L 260.820312 146.054688 L 260.820312 195.691406 L 260.355469 195.691406 C 259.34375 195.691406 258.511719 196.519531 258.511719 197.535156 L 258.511719 206.667969 C 258.511719 207.683594 259.34375 208.515625 260.355469 208.515625 L 265.890625 208.515625 C 266.90625 208.515625 267.734375 207.683594 267.734375 206.667969 L 267.734375 197.535156 C 267.734375 196.519531 266.90625 195.691406 265.890625 195.691406 L 265.429688 195.691406 L 265.429688 144.949219 L 297.347656 136.925781 C 299.742188 136.371094 299.742188 133.050781 297.347656 132.496094 Z M 297.347656 132.496094 " fill-opacity="1" fill-rule="nonzero"/></g></svg>